<svg xmlns="http://www.w3.org/2000/svg" width="13" height="13" id="salesforce" viewBox="0 0 26 26"><g transform="translate(0 -1026.362)"><circle cx="13" cy="1039.362" r="13" fill="#239fdb" fill-rule="evenodd"></circle><path fill="#0b5ecd" d="M13.766 25.973a13 13 0 0 0 .154-.006 13 13 0 0 0 1.289-.156 13 13 0 0 0 1.268-.286 13 13 0 0 0 1.234-.408 13 13 0 0 0 1.185-.531 13 13 0 0 0 1.127-.647 13 13 0 0 0 1.057-.755 13 13 0 0 0 .977-.858 13 13 0 0 0 .886-.951 13 13 0 0 0 .786-1.035 13 13 0 0 0 .68-1.108 13 13 0 0 0 .566-1.17 13 13 0 0 0 .445-1.22 13 13 0 0 0 .32-1.26 13 13 0 0 0 .196-1.285A13 13 0 0 0 26 13a13 13 0 0 0-.016-.436l-6.029-6.029-.006-.006a3.487 3.487 0 0 0-2.273-1.01c-1.02-.043-2.017.396-2.737 1.182-1.004-.373-1.998-.026-2.718.684a3.532 3.532 0 0 0-.266.299l-.344-.344c-.04-.04-.087-.067-.129-.104-.113-.101-.225-.203-.351-.285-.01-.007-.02-.015-.031-.021a2.735 2.735 0 0 0-.508-.25c-.034-.013-.067-.026-.102-.037a2.515 2.515 0 0 0-.535-.114c-.04-.004-.08-.003-.12-.006a2.465 2.465 0 0 0-.585.032h-.002a2.78 2.78 0 0 0-2.215 3.234.5.5 0 0 0 .004.014c-.336.1-.692.162-.988.33-.099.056-.19.124-.274.209-.963.99-.912 2.479-.105 3.55-.785 1.049-.838 2.481-.248 3.565.08.147.181.29.293.43.034.043.074.084.111.127.05.056.094.113.149.168l7.79 7.79zm-6.018-15.47 1.24 1.241v.004l-1.24-1.24h-.006l-.002-.002.008-.002z" color="#000" font-family="sans-serif" font-weight="400" style="line-height:normal;text-indent:0;text-align:start;text-decoration-line:none;text-decoration-style:solid;text-decoration-color:#000;text-transform:none;block-progression:tb;isolation:auto;mix-blend-mode:normal" transform="translate(0 1026.362)"></path><path fill="#fff" d="M12.7 1.008c-1.02-.044-2.018.395-2.737 1.181-1.148-.426-2.283.09-3.01 1.01-.623-.849-1.624-1.353-2.68-1.156a.5.5 0 0 0-.002 0 2.78 2.78 0 0 0-2.214 3.234.5.5 0 0 0 .004.014c-.448.134-.93.198-1.262.54-.964.989-.913 2.478-.106 3.55-.784 1.048-.838 2.48-.248 3.564.35.643 1.022 1.234 1.852 1.617.71.329 1.557.416 2.387.198.075.092.146.18.3.344a2.534 2.534 0 0 0 1.768.798v.07c.7 0 1.343-.227 1.873-.605.73.536 1.654.758 2.531.444 1.2-.432 1.735-1.636 1.639-2.852 1.626.104 3.055-1.115 3.182-2.744.096-1.247-.713-2.187-1.77-2.717.48-.271.912-.616 1.22-1.086a3.5 3.5 0 0 0-1.003-4.84 3.474 3.474 0 0 0-1.725-.564zm-.227.986c.48-.005.968.13 1.402.414a2.483 2.483 0 0 1 .717 3.453c-.376.572-.97.965-1.645 1.086a.5.5 0 0 0-.013.985.5.5 0 0 0 .21.06 1.99 1.99 0 0 1 1.836 2.145 1.988 1.988 0 0 1-2.144 1.834c-.347-.027-.418-.035-.418-.035a.5.5 0 0 0-.531.664 1.765 1.765 0 0 1-1.069 2.267 1.757 1.757 0 0 1-1.513-.162 3.21 3.21 0 0 0 .691-1.976V7.988h.99v-1h-.99v-.25a2.23 2.23 0 0 1 2.246-2.244v-1a3.25 3.25 0 0 0-3.246 3.244v.25H7.99v1h1.006V12.73c0 1.216-.939 2.18-2.14 2.234a1.762 1.762 0 0 1-1.143-.549.5.5 0 0 0-.002 0 5.293 5.293 0 0 1-.365-.422.5.5 0 0 0-.002 0h-.002a.5.5 0 0 0-.635-.215c-.63.274-1.344.18-1.99-.119-.646-.298-1.192-.816-1.393-1.185-.452-.832-.422-2.072.229-2.723a.5.5 0 0 0-.004-.71 1.765 1.765 0 0 1-.033-2.507c.33-.34.782-.533 1.255-.537a.5.5 0 0 0 .403-.79l-.121-.169c-.14-.942.457-1.83 1.402-2.006a1.77 1.77 0 0 1 1.883.899l.084.205a.5.5 0 0 0 .928-.01c.35-.89 1.325-1.305 2.22-.998l.047.053a.5.5 0 0 0 .797-.05c.38-.578.957-.948 1.582-1.077v-.006c.156-.033.316-.051.477-.053zM6.06 5.014c-1.18.03-2.081 1.087-2.055 2.3.012.578.19 1.108.533 1.506.344.399.851.646 1.42.69h-.018c.525.06.556.09.829.49.38.558.265 1.373-.233 1.775-.498.403-1.14.307-1.521-.252l-.827.563c.678.992 2.05 1.216 2.977.467.927-.75 1.108-2.125.43-3.117-.354-.519-.858-.842-1.541-.92h-.02c-.34-.026-.569-.15-.738-.346-.17-.197-.283-.485-.291-.873-.016-.717.488-1.264 1.082-1.28h.002a.987.987 0 0 1 .65.221l.614-.79a1.997 1.997 0 0 0-1.292-.434h-.001zm2.837 10.209-.01.007h-.011c.006-.008.015-.003.021-.007z" color="#000" font-family="sans-serif" font-weight="400" overflow="visible" style="line-height:normal;text-indent:0;text-align:start;text-decoration-line:none;text-decoration-style:solid;text-decoration-color:#000;text-transform:none;block-progression:tb;isolation:auto;mix-blend-mode:normal" transform="translate(4.976 1030.873)"></path></g></svg>